<?xml version="1.0" encoding="utf-8"?>
<!-- Generator: Adobe Illustrator 17.0.0, SVG Export Plug-In . SVG Version: 6.00 Build 0)  -->
<!DOCTYPE svg PUBLIC "-//W3C//DTD SVG 1.1//EN" "http://www.w3.org/Graphics/SVG/1.1/DTD/svg11.dtd">
<svg version="1.1" id="Livello_1" xmlns="http://www.w3.org/2000/svg" xmlns:xlink="http://www.w3.org/1999/xlink" x="0px" y="0px"
	 width="1920px" height="271.5px" viewBox="0 0 1920 271.5" enable-background="new 0 0 1920 271.5" xml:space="preserve">
<path fill="#FEFEFE" d="M-27.18,84.045c5.021,0.961,3.408,5.658,3.862,8.446c2.224,13.655,5.049,27.229,6.809,40.931
	c1.334,10.391,3.64,20.596,5.097,30.96c1.614,11.475,3.646,23.019,6.144,34.418c1.719,7.841,2.46,15.906,3.638,23.87
	c-7.324,0-14.656-0.194-21.969,0.092c-3.068,0.12-3.674-0.631-3.666-3.741C-27.141,174.03-27.18,129.037-27.18,84.045z"/>
<path fill="#FEFEFE" d="M1920.71,218.67c0.219-2.905-0.868-5.998,3.928-6.939c2.355-0.462,1.835-4.993,0.599-6.769
	c-3.112-4.472-0.333-8.262,0.483-12.253c0.736-3.602,2.1,0.223,3.165-0.097c0,7.296-0.245,14.604,0.104,21.883
	c0.173,3.598-0.68,4.884-4.2,4.215C1923.473,218.46,1922.072,218.67,1920.71,218.67z"/>
<path fill="#FEFEFE" d="M1928.885,75.876c-4.982,1.04-5.299,0.335-5.338-4.372c-0.071-8.697,3.031-16.885,3.306-25.48
	c0.045-1.414,0.575-2.308,2.031-2.459C1928.885,54.335,1928.885,65.106,1928.885,75.876z"/>
<path fill="#FEFEFE" d="M1152.204,255.671c-0.025-2.405,2.086-3.465,3.191-5.145c1.069-1.625,2.787-1.492,3.96-0.267
	c1.549,1.619,2.744,3.591,4.091,5.412C1159.699,255.671,1155.951,255.671,1152.204,255.671z"/>
<path fill="#FEFEFE" d="M1546.688,253.671c1.013-2.781,5.766-0.809,5.901-4.784c0.002-0.054,0.889-0.077,1.362-0.115
	c0.12,4.047,4.981,2.031,6.023,4.899C1555.545,253.671,1551.116,253.671,1546.688,253.671z"/>
<path fill="#FEFEFE" d="M1928.885,186.359c-4.262-3.127-1.361-6.254,0-9.381C1928.885,180.105,1928.885,183.232,1928.885,186.359z"
	/>
<path fill="#FEFEFE" d="M1940.765,41.48c-1.593-2.085-1.549-4.169,0-6.254C1940.765,37.311,1940.765,39.396,1940.765,41.48z"/>
<path fill="#DBEDF6" d="M-40.565-14.008c-1.34-0.129-2.161-2.411-3.578-1.315c-1.348,1.042-0.81,2.931-0.472,4.379
	c3.627,15.543,5.059,31.41,7.329,47.16c0.997,6.917,3.695,13.59,2.831,20.78c-1.493-0.209-1.812-1.208-2.017-2.556
	c-1.318-8.636-2.555-17.29-4.148-25.877c-2.223-11.979-2.695-24.235-5.72-36.07c-0.708-2.769-0.179-5.534-0.672-8.249
	c-0.272-1.495-1.318-3.117,0.733-4.036c2.082-0.933,3.097,0.877,4.342,2.003C-40.81-16.767-40.561-15.436-40.565-14.008z"/>
<path fill="#E4F4F8" d="M1923.82,24.933c-9.922,12.451-21.899,22.669-34.263,32.432c-11.129,8.788-23.118,16.384-35.705,22.574
	c-18.585,9.141-37.975,16.104-58.292,20.769c-23.604,5.419-47.37,6.934-71.267,5.693c-17.339-0.901-34.535-3.754-51.335-8.963
	c-11.123-3.449-22.159-6.96-32.84-11.655c-14.141-6.216-27.531-13.763-40.444-22.326c-13.294-8.816-25.248-19.257-36.571-30.444
	c-5.453-5.387-10.441-11.325-14.82-17.746c-3.619-5.306-4.475-5.221-8.244-0.389c-18.808,24.116-41.327,43.725-67.699,58.868
	c-15.21,8.734-31.16,15.771-47.678,21.087c-17.54,5.645-35.651,9.088-54.079,10.923c-13.956,1.39-27.909,1.291-41.769,0.58
	c-11.898-0.61-23.84-2.361-35.571-5.286c-9.209-2.296-18.362-4.61-27.365-7.689c-7.148-2.444-14.137-5.22-21-8.278
	c-13.978-7.764-44.495-25.344-57.399-37.744c-14.148-13.595-27.148-30.095-27.148-30.095s-7.743-11.992-10.621-13.079
	c-0.202-0.226-0.463-0.349-0.735-0.253c-0.892,0.313-1.822,1.005-2.361,1.8c-6.12,9.022-13.324,17.125-21.269,24.413
	c-9.792,8.982-19.939,17.505-30.972,25.035c-11.847,8.086-24.119,15.335-37.032,21.212c-12.129,5.52-24.705,10.158-37.714,13.364
	c-16.485,4.063-33.136,6.383-50.082,7.765c-24.295,1.981-48.065-0.932-71.614-5.851c-13.021-2.72-25.661-7.386-38.158-12.385
	c-18.486-7.395-35.614-17.283-51.77-28.706c-13.479-9.53-26.12-20.381-36.666-33.49c-3.436-4.271-7.29-8.181-10.384-12.769
	c-1.859-2.758-4.008-2.201-5.744,0.299c-10.995,15.833-24.508,29.261-39.542,40.897c-10.559,8.172-21.508,15.906-33.615,21.882
	c-8.034,3.966-15.941,8.134-24.222,11.602c-16.643,6.97-33.852,11.845-51.513,15.075c-17.558,3.211-35.345,4.899-53.123,4.032
	c-18.897-0.921-37.65-3.271-56.1-8.418c-15.563-4.341-30.793-9.532-45.229-16.584c-15.521-7.582-30.393-16.573-43.922-27.651
	c-7.809-6.394-15.614-12.798-22.615-20.096c-6.283-6.549-12.514-13.198-17.827-20.619c-2.533-3.538-4.763-2.87-6.853,0.066
	c-12.08,16.968-26.687,31.358-43.198,43.722c-16.248,12.167-33.669,22.213-52.414,29.97c-12.746,5.274-25.774,9.513-39.111,12.682
	c-14.506,3.446-29.202,5.656-44.166,6.266c-6.593,0.269-13.206,1.137-19.807,0.801c-20.295-1.034-40.411-3.016-60.187-8.519
	c-14.729-4.099-29.055-9.111-42.872-15.562c-17.445-8.146-33.604-18.556-48.504-30.902c-7.1-5.883-13.971-12.057-20.86-18.199
	c-1.477-1.316-3.384-2.507-3.369-4.955c-0.331-0.364-0.662-0.728-0.993-1.091c-1.314-0.129-2.119-2.411-3.509-1.315
	c-1.322,1.042-0.794,2.931-0.463,4.379c3.556,15.543,4.96,31.41,7.186,47.16c0.977,6.917,3.623,13.59,2.775,20.78
	c0.005,1.022,0.011,2.043,0.018,3.065c0.325,0.39,0.77,0.727,0.954,1.176c3.396,8.292,2.113,17.401,4.306,25.878
	c1.043,4.031-0.711,9.008,3.233,12.059c18.128,14.026,37.959,25.049,59.166,33.291c18.989,7.381,38.473,12.959,58.81,15.422
	c19.184,2.323,38.191,4.608,57.671,3.119c21.199-1.62,42.019-4.769,62.625-9.908c18.007-4.491,35.249-11.209,51.648-19.8
	c9.559-5.008,18.734-10.922,27.703-17.192c14.313-10.005,26.502-22.2,38.155-35.02c3.24-3.565,5.17-3.34,7.661-0.216
	c12.23,15.34,27.257,27.537,43.226,38.328c14.209,9.602,29.226,17.89,45.423,23.921c14.609,5.439,29.118,10.749,44.496,13.72
	c24.711,4.775,49.374,7.956,74.655,6.098c19.308-1.419,38.391-3.619,57.15-8.533c16.406-4.298,32.568-9.299,47.931-16.705
	c10.071-4.854,19.611-10.628,29.154-16.492c17.182-10.558,31.957-23.889,45.021-39.176c3.59-4.202,5.214-3.796,8.51-0.273
	c11.623,12.417,23.936,23.949,37.799,33.924c11.964,8.609,24.788,15.314,37.788,21.859c5.145,2.59,10.26,5.411,15.677,7.233
	c14.576,4.902,29.107,9.928,44.299,12.79c17.519,3.3,35.144,5.45,52.903,6.099c16.972,0.619,33.817-1.505,50.603-3.98
	c26.453-3.9,51.624-12.11,75.775-23.61c14.46-6.885,27.882-15.555,40.5-25.553c7.245-5.741,14.534-11.545,20.676-18.394
	c6.324-7.052,13.044-13.668,19.563-20.499c2.377-2.491,4.737-2.46,7.274,0.547c13.273,15.726,28.946,28.656,45.912,39.975
	c9.184,6.128,18.792,11.476,28.823,16.119c9.995,4.626,20.069,9.127,30.504,12.41c11.73,3.69,23.679,6.648,35.81,9.067
	c12.543,2.501,25.147,3.719,37.745,4.43c19.833,1.12,39.695,0.107,59.404-2.896c19.243-2.931,38.155-7.492,56.314-14.476
	c21.051-8.096,40.99-18.516,59.156-32.39c12.591-9.617,24.056-20.337,34.429-32.305c2.307-2.662,4.156-2.752,6.32-0.453
	c2.228,2.367,4.07,5.124,6.376,7.4c11.592,11.444,23.748,22.139,37.34,31.164c15.162,10.068,30.919,19.132,47.992,24.922
	c16.785,5.692,33.821,10.897,51.38,14.003c13.213,2.337,26.5,3.768,39.847,4.157c27.026,0.788,53.758-1.214,80.186-7.974
	c19.482-4.983,38.19-11.887,56.173-20.667c12.157-5.935,23.597-13.447,34.401-21.809c4.476-3.464,8.715-6.182,9.651-13.313
	c1.665-12.685,3.755-25.363,5.754-38.024c0.566-3.584-1.054-7.983,2.946-10.715c0-13.202,0-26.405,0-39.607
	C1926,22.156,1924.871,23.615,1923.82,24.933z"/>
<rect x="-28" y="197.576" fill="#95CCE7" width="1980" height="117"/>
<rect x="-1" y="290.576" fill="#C1E3F0" width="1923" height="204"/>
<path fill="#95CCE7" d="M-28.18,99.791c6.322,1.581,9.147,7.891,14.318,11.051c1.126,0.688,1.932,1.914,2.9,2.877
	c1.111,1.107,2.262,2.26,3.955,1.172c1.559-1.002,1.453-2.667,1.214-4.192c-1.214-7.762-2.54-15.506-3.744-23.27
	c-0.281-1.813-0.855-3.767,0.715-5.368c0.325,0.39,0.77,0.727,0.954,1.176c3.396,8.292,2.113,17.401,4.306,25.878
	c1.043,4.032-0.711,9.008,3.233,12.059c18.128,14.026,37.959,25.049,59.166,33.291c18.989,7.381,38.473,12.959,58.81,15.422
	c19.184,2.323,38.192,4.608,57.671,3.119c21.199-1.62,42.019-4.769,62.625-9.908c18.007-4.491,35.249-11.209,51.648-19.8
	c9.559-5.008,18.734-10.922,27.703-17.192c14.313-10.005,26.502-22.2,38.155-35.02c3.24-3.565,5.17-3.34,7.661-0.216
	c12.23,15.34,27.257,27.537,43.226,38.328c14.209,9.602,29.226,17.89,45.423,23.921c14.609,5.439,29.118,10.749,44.496,13.72
	c24.711,4.775,49.374,7.956,74.655,6.098c19.308-1.419,38.391-3.619,57.15-8.533c16.406-4.298,32.568-9.299,47.931-16.705
	c10.071-4.854,19.611-10.628,29.154-16.492c17.182-10.558,31.957-23.889,45.021-39.176c3.59-4.202,5.214-3.796,8.51-0.273
	c11.623,12.417,23.936,23.949,37.799,33.925c11.964,8.609,24.788,15.314,37.788,21.859c5.145,2.59,10.26,5.411,15.677,7.233
	c14.576,4.902,29.107,9.928,44.299,12.79c17.519,3.3,35.144,5.45,52.903,6.099c16.972,0.619,33.817-1.505,50.603-3.98
	c26.453-3.9,51.624-12.111,75.775-23.61c14.46-6.885,27.882-15.555,40.5-25.553c7.245-5.741,14.534-11.545,20.676-18.394
	c6.324-7.052,13.044-13.668,19.563-20.499c2.377-2.491,4.737-2.46,7.274,0.547c13.273,15.726,28.946,28.656,45.912,39.975
	c9.184,6.128,18.791,11.476,28.823,16.119c9.995,4.626,20.069,9.127,30.505,12.41c11.73,3.691,23.679,6.648,35.81,9.067
	c12.544,2.501,25.147,3.719,37.745,4.43c19.833,1.12,39.695,0.107,59.404-2.896c19.243-2.931,38.155-7.492,56.314-14.476
	c21.051-8.096,40.99-18.516,59.156-32.39c12.591-9.617,24.056-20.337,34.429-32.305c2.307-2.662,4.156-2.752,6.32-0.453
	c2.228,2.367,4.07,5.124,6.376,7.4c11.592,11.444,23.748,22.139,37.34,31.164c15.162,10.068,30.919,19.132,47.992,24.922
	c16.785,5.692,33.821,10.897,51.38,14.003c13.213,2.337,26.5,3.768,39.847,4.157c27.026,0.788,53.758-1.214,80.186-7.974
	c19.482-4.983,38.19-11.887,56.173-20.667c12.157-5.935,23.597-13.447,34.401-21.809c4.476-3.464,8.715-6.182,9.651-13.313
	c1.665-12.685,3.697-25.363,5.696-38.024c0.566-3.584-0.952-7.983,2.889-10.715c0,3.474,0,6.949,0,10.423
	c-1.519,2.085-1.562,4.169,0,6.254c0,0.695,0,1.39,0,2.085c-1.456,0.151-1.986,1.045-2.031,2.459
	c-0.275,8.595-3.378,16.783-3.306,25.48c0.039,4.707,0.356,5.413,5.338,4.372c0,33.701,0,67.402,0,101.102
	c-1.361,3.127-4.262,6.254,0,9.381c0,2.085,0,4.169,0,6.254c-1.065,0.319-2.429-3.505-3.165,0.097
	c-0.816,3.991-3.595,7.781-0.483,12.253c1.236,1.776,1.756,6.308-0.599,6.769c-4.797,0.94-3.71,4.034-3.928,6.939
	c-119.912,0-239.824,0-359.736,0c-1.042-2.868-5.903-0.852-6.023-4.899c-0.474,0.038-1.36,0.061-1.362,0.115
	c-0.135,3.976-4.887,2.003-5.901,4.784c-127.747,0-255.495,0-383.242,0c-1.347-1.82-2.542-3.792-4.091-5.412
	c-1.172-1.225-2.891-1.358-3.96,0.267c-1.105,1.68-3.216,2.74-3.191,5.145c-384.945,0-769.89,0-1154.835,0
	c-1.178-7.965-1.919-16.029-3.638-23.87c-2.498-11.399-4.53-22.943-6.144-34.418c-1.457-10.364-3.763-20.568-5.097-30.96
	c-1.759-13.702-4.585-27.275-6.809-40.931c-0.454-2.788,1.159-7.485-3.862-8.446C-28.18,103.96-28.18,101.876-28.18,99.791z"/>
<path fill="#C1E3F0" d="M-28.18,172.802c6.322,1.581,9.147,7.891,14.318,11.051c1.126,0.688,1.932,1.914,2.9,2.877
	c1.111,1.107,2.262,2.26,3.955,1.172c1.559-1.002,1.453-2.667,1.214-4.192c-1.214-7.762-2.54-15.506-3.744-23.27
	c-0.281-1.813-0.855-3.767,0.715-5.368c0.325,0.39,0.77,0.727,0.954,1.176c3.396,8.292,2.113,17.402,4.306,25.878
	c1.043,4.032-0.711,9.008,3.233,12.059c18.128,14.026,37.959,25.049,59.166,33.291c18.989,7.381,38.473,12.959,58.81,15.422
	c19.184,2.323,38.192,4.608,57.671,3.119c21.199-1.62,42.019-4.769,62.625-9.908c18.007-4.491,35.249-11.209,51.648-19.8
	c9.559-5.008,18.734-10.922,27.703-17.192c14.313-10.005,26.502-22.2,38.155-35.02c3.24-3.565,5.17-3.34,7.661-0.216
	c12.23,15.34,27.257,27.537,43.226,38.328c14.209,9.602,29.226,17.89,45.423,23.921c14.609,5.439,29.118,10.749,44.496,13.72
	c24.711,4.775,49.374,7.956,74.655,6.098c19.308-1.419,38.391-3.619,57.15-8.533c16.406-4.298,32.568-9.299,47.931-16.705
	c10.071-4.854,19.611-10.628,29.154-16.492c17.182-10.558,31.957-23.889,45.021-39.176c3.59-4.202,5.214-3.796,8.51-0.273
	c11.623,12.417,23.936,23.949,37.799,33.925c11.964,8.609,24.788,15.314,37.788,21.859c5.145,2.59,10.26,5.411,15.677,7.233
	c14.576,4.902,29.107,9.928,44.299,12.79c17.519,3.3,35.144,5.45,52.903,6.099c16.972,0.619,33.817-1.505,50.603-3.98
	c26.453-3.9,51.624-12.11,75.775-23.61c14.46-6.885,27.882-15.555,40.5-25.553c7.245-5.741,14.534-11.545,20.676-18.394
	c6.324-7.052,13.044-13.668,19.563-20.499c2.377-2.491,4.737-2.46,7.274,0.547c13.273,15.726,28.946,28.656,45.912,39.975
	c9.184,6.128,18.791,11.476,28.823,16.119c9.995,4.626,20.069,9.127,30.505,12.41c11.73,3.691,23.679,6.648,35.81,9.067
	c12.544,2.501,25.147,3.719,37.745,4.43c19.833,1.12,39.695,0.107,59.404-2.896c19.243-2.931,38.155-7.492,56.314-14.476
	c21.051-8.096,40.99-18.516,59.156-32.39c12.591-9.617,24.056-20.337,34.429-32.305c2.307-2.662,4.156-2.752,6.32-0.453
	c2.228,2.367,4.07,5.124,6.376,7.4c11.592,11.444,23.748,22.139,37.34,31.164c15.162,10.068,30.919,19.132,47.992,24.922
	c16.785,5.692,33.821,10.897,51.38,14.003c13.213,2.337,26.5,3.768,39.847,4.157c27.026,0.788,53.758-1.214,80.186-7.974
	c19.482-4.983,38.19-11.887,56.173-20.667c12.157-5.935,23.597-13.447,34.401-21.809c4.476-3.464,8.715-6.182,9.651-13.313
	c1.665-12.685,3.697-25.363,5.696-38.024c0.566-3.584-0.952-7.983,2.889-10.715c0,3.474,0,6.949,0,10.423
	c-1.519,2.085-1.562,4.169,0,6.254c0,0.695,0,1.39,0,2.085c-1.456,0.151-1.986,1.045-2.031,2.459
	c-0.275,8.595-3.378,16.783-3.306,25.48c0.039,4.707,0.356,5.413,5.338,4.372c0,33.701,0,67.402,0,101.102
	c-1.361,3.127-4.262,6.254,0,9.381c0,2.085,0,4.169,0,6.254c-1.065,0.319-2.429-3.505-3.165,0.097
	c-0.816,3.991-3.595,7.781-0.483,12.253c1.236,1.776,1.756,6.308-0.599,6.769c-4.797,0.94-3.71,4.034-3.928,6.939
	c-119.912,0-239.824,0-359.736,0c-1.042-2.868-5.903-0.852-6.023-4.899c-0.474,0.038-1.36,0.061-1.362,0.115
	c-0.135,3.976-4.887,2.003-5.901,4.784c-127.747,0-255.495,0-383.242,0c-1.347-1.82-2.542-3.792-4.091-5.412
	c-1.172-1.225-2.891-1.358-3.96,0.267c-1.105,1.68-3.216,2.74-3.191,5.145c-384.945,0-769.89,0-1154.835,0
	c-1.178-7.965-1.919-16.029-3.638-23.87c-2.498-11.399-4.53-22.943-6.144-34.418c-1.457-10.364-3.763-20.568-5.097-30.96
	c-1.759-13.702-4.585-27.275-6.809-40.931c-0.454-2.788,1.159-7.485-3.862-8.446C-28.18,176.972-28.18,174.887-28.18,172.802z"/>
</svg>
